Coordinates
version=1
nRows=14
nColumns=45
inDegrees=yes

Units are S.I. units (second, meters, Newtons, ...)
Angles are in degrees.

endheader
time	pelvis_tilt	pelvis_list	pelvis_rotation	pelvis_tx	pelvis_ty	pelvis_tz	hip_flexion_r	hip_adduction_r	hip_rotation_r	knee_angle_r	knee_adduction_r	knee_angle_r_beta	ankle_angle_r	subtalar_angle_r	mtp_angle_r	hip_flexion_l	hip_adduction_l	hip_rotation_l	knee_angle_l	knee_adduction_l	knee_angle_l_beta	ankle_angle_l	subtalar_angle_l	mtp_angle_l	lumbar_extension	lumbar_bending	lumbar_rotation	thoracic_extension	thoracic_bending	thoracic_rotation	arm_flex_r	arm_add_r	arm_rot_r	elbow_flex_r	pro_sup_r	wrist_flex_r	wrist_dev_r	arm_flex_l	arm_add_l	arm_rot_l	elbow_flex_l	pro_sup_l	wrist_flex_l	wrist_dev_l
      6.77000000	     -1.27031278	      2.07631730	     -4.45515733	      0.66901767	      0.94709926	      0.46053001	     24.94509660	     -5.34069768	     -0.75462805	     70.11577434	      5.06300000	      1.22375112	      1.35494481	    -11.99767790	      0.94100187	      8.58346421	      3.61041660	     -6.05279368	     23.23663534	      5.06300000	      0.40555579	     16.88653519	     -8.35972794	      1.83186709	     -5.25374597	     -0.50590249	     -0.42448240	      0.00000000	      0.00000000	      0.00000000	      2.77663627	    -12.29040255	     -1.87242549	     27.12417825	     89.99911678	      0.00000000	      0.00000000	      0.48341858	    -13.64228564	     12.30588937	     32.96821633	     89.99945425	      0.00000000	      0.00000000
      6.78064286	     -1.61088613	      2.03676388	     -4.24020470	      0.66728302	      0.94826014	      0.46060688	     26.68425493	     -5.09202743	     -1.07735830	     68.36385257	      5.06300000	      1.19317432	      2.07523761	    -11.58164116	      0.41429425	      7.64145657	      3.60984920	     -5.93423205	     22.49427982	      5.06300000	      0.39259925	     16.88067604	     -7.86716384	      1.59732176	     -4.95484726	     -0.43120115	     -0.86365575	      0.00000000	      0.00000000	      0.00000000	      1.54311828	    -12.15285716	     -1.86544026	     26.85837255	     89.99911678	      0.00000000	      0.00000000	      1.29305045	    -14.03928815	     12.13549310	     33.82227177	     89.99945425	      0.00000000	      0.00000000
      6.79128571	     -1.89841210	      1.98565992	     -4.00159803	      0.66556926	      0.94924016	      0.46048250	     28.17054328	     -4.92683964	     -1.50557576	     66.34455577	      5.06300000	      1.15793094	      2.71271810	    -10.94807386	     -0.06122124	      6.65744329	      3.60953976	     -5.78586309	     21.74857242	      5.06300000	      0.37958420	     16.83727363	     -7.40626002	      1.25871764	     -4.72127770	     -0.32297214	     -1.29577993	      0.00000000	      0.00000000	      0.00000000	      0.41609068	    -12.04218486	     -1.91463917	     26.40810566	     89.99911678	      0.00000000	      0.00000000	      2.10078329	    -14.42981135	     12.00614060	     34.82634211	     89.99945425	      0.00000000	      0.00000000
      6.80192857	     -1.37792828	      1.68843789	     -3.69335480	      0.66393661	      0.95114405	      0.46004680	     28.45928306	     -4.67168275	     -2.18058266	     63.86863500	      5.06300000	      1.11471797	      3.15700869	    -10.29487599	     -0.50985530	      4.71292779	      3.45660894	     -5.38654439	     20.79953511	      5.06300000	      0.36302037	     16.54143851	     -7.28123024	      0.29970143	     -5.47085678	      0.03944702	     -2.02978118	      0.00000000	      0.00000000	      0.00000000	      0.24102341	    -11.81854939	     -2.41969450	     24.28949394	     89.99911678	      0.00000000	      0.00000000	      2.69607239	    -15.07692246	     12.20392684	     36.79038682	     89.99945425	      0.00000000	      0.00000000
      6.81257143	     -1.77067662	      1.82145977	     -3.37668989	      0.66251509	      0.95129536	      0.46007725	     29.77047257	     -4.73509382	     -2.62055046	     61.42988332	      5.06300000	      1.07215372	      3.71988344	     -9.65375375	     -0.38250327	      3.89498442	      3.59252142	     -5.29352714	     20.12886830	      5.06300000	      0.35131503	     16.58951442	     -6.60028985	      0.08619664	     -5.04199554	     -0.09747177	     -2.51672765	      0.00000000	      0.00000000	      0.00000000	     -0.93159003	    -11.64035992	     -2.45912408	     24.15917203	     89.99911678	      0.00000000	      0.00000000	      3.46601433	    -15.52610886	     12.00518419	     37.70811471	     89.99945425	      0.00000000	      0.00000000
      6.82321429	     -2.13065936	      1.95495600	     -3.10624821	      0.66079926	      0.95115814	      0.46002925	     30.96319476	     -4.83742475	     -3.07972819	     58.77256534	      5.06300000	      1.02577477	      4.12820824	     -8.97155614	     -0.18287374	      3.08398579	      3.74398700	     -5.16377254	     19.48240451	      5.06300000	      0.34003210	     16.59928952	     -6.08584889	     -0.18242801	     -4.74203957	     -0.21827799	     -2.98848071	      0.00000000	      0.00000000	      0.00000000	     -1.93563908	    -11.54555093	     -2.51583566	     24.02335968	     89.99911678	      0.00000000	      0.00000000	      4.30858565	    -16.07779915	     11.81503622	     38.68285483	     89.99945425	      0.00000000	      0.00000000
      6.83385714	     -1.23474914	      1.55809236	     -2.57172712	      0.65979664	      0.95280660	      0.45961862	     30.26825677	     -4.62997608	     -4.06886294	     55.41526289	      5.06300000	      0.96717879	      4.52448633	     -8.29727973	      0.44111755	      0.69004384	      3.42368129	     -4.61846495	     18.48954092	      5.06300000	      0.32270337	     16.38321250	     -5.78144829	     -1.28799404	     -5.86316034	      0.23560114	     -3.86208588	      0.00000000	      0.00000000	      0.00000000	     -2.12698978	    -11.35377433	     -3.21089208	     22.30521105	     89.99911678	      0.00000000	      0.00000000	      4.64259315	    -16.74834605	     12.02765313	     41.20091299	     89.99945425	      0.00000000	      0.00000000
      6.84450000	     -1.68213977	      1.84744930	     -2.31651490	      0.65833609	      0.95186356	      0.45962919	     31.35840418	     -4.88770968	     -4.44397575	     52.33047264	      5.06300000	      0.91333905	      4.74053571	     -7.70760714	      0.50060725	     -0.05085121	      3.71272646	     -4.49530965	     17.81529636	      5.06300000	      0.31093558	     16.44566760	     -5.23238516	     -1.51794068	     -5.41643018	     -0.05535482	     -4.24019789	      0.00000000	      0.00000000	      0.00000000	     -3.20496952	    -11.25008910	     -3.29491162	     22.25080500	     89.99911678	      0.00000000	      0.00000000	      5.36501418	    -17.19318306	     11.82788381	     42.12913336	     89.99945425	      0.00000000	      0.00000000
      6.85514286	     -1.52755143	      1.63186015	     -2.00525731	      0.65701308	      0.95182351	      0.45956415	     31.40008905	     -4.70195855	     -5.16812055	     48.59553771	      5.06300000	      0.84815213	      4.76456131	     -7.16495675	      0.41344224	     -1.50236225	      3.48717836	     -4.25121827	     17.07429967	      5.06300000	      0.29800275	     16.39979058	     -4.90219672	     -2.38634222	     -5.72866633	      0.22633525	     -4.74373187	      0.00000000	      0.00000000	      0.00000000	     -3.81599435	    -11.21318128	     -3.71515667	     21.76393971	     89.99911678	      0.00000000	      0.00000000	      5.90391228	    -17.77396694	     11.83712453	     43.95502022	     89.99945425	      0.00000000	      0.00000000
      6.86578571	     -1.49625007	      1.71194038	     -1.71070837	      0.65546735	      0.95112736	      0.45982120	     31.60383604	     -4.74288769	     -5.65553382	     44.81140531	      5.06300000	      0.78210657	      4.81652654	     -6.66410084	      0.16045182	     -2.77713386	      3.52169031	     -4.10029657	     16.38380824	      5.06300000	      0.28595140	     16.40295834	     -4.34750945	     -3.10885010	     -5.91377917	      0.10128324	     -5.17254228	      0.00000000	      0.00000000	      0.00000000	     -4.48926568	    -11.09006811	     -4.13666276	     21.49458730	     89.99911678	      0.00000000	      0.00000000	      6.53837494	    -18.38329733	     11.72860735	     45.54780713	     89.99945425	      0.00000000	      0.00000000
      6.87642857	     -1.92424154	      1.96050920	     -1.47467184	      0.65414277	      0.94950314	      0.46013980	     32.27910332	     -4.89652025	     -5.96303062	     40.96374775	      5.06300000	      0.71495227	      4.97133827	     -6.04076336	     -0.01386320	     -3.57985099	      3.72411273	     -3.99448595	     15.68381597	      5.06300000	      0.27373423	     16.45815403	     -3.84986309	     -3.58070793	     -5.46229276	     -0.18474636	     -5.46301473	      0.00000000	      0.00000000	      0.00000000	     -5.45409680	    -11.00295070	     -4.30503424	     21.41711760	     89.99911678	      0.00000000	      0.00000000	      7.19773001	    -18.77516722	     11.61241915	     46.63237082	     89.99945425	      0.00000000	      0.00000000
      6.88707143	     -2.15893605	      1.97304105	     -1.34480847	      0.65234698	      0.94799470	      0.46059640	     32.53550347	     -4.73653816	     -6.23094736	     36.70130978	      5.06300000	      0.64055870	      5.01275802	     -5.36383752	     -0.49326339	     -4.47556065	      3.67007738	     -3.98964142	     15.17080225	      5.06300000	      0.26478045	     16.51315256	     -3.42324510	     -4.47272620	     -5.44401575	     -0.16686405	     -5.69141188	      0.00000000	      0.00000000	      0.00000000	     -6.01575402	    -10.92095045	     -4.58631610	     21.37774530	     89.99911678	      0.00000000	      0.00000000	      7.90132308	    -19.34895519	     11.55204900	     48.04401188	     89.99945425	      0.00000000	      0.00000000
      6.89771429	     -2.47812336	      2.21827535	     -1.17468624	      0.65053642	      0.94599949	      0.46121685	     32.87705700	     -4.79713312	     -6.31909890	     32.49256969	      5.06300000	      0.56710232	      5.23784694	     -4.55703338	     -0.83995851	     -5.27768250	      3.83716336	     -3.95993629	     14.66014810	      5.06300000	      0.25586785	     16.55165082	     -2.90651294	     -5.19301642	     -5.29087324	     -0.46227536	     -5.89193484	      0.00000000	      0.00000000	      0.00000000	     -6.71906726	    -10.80405982	     -4.80570627	     21.32965586	     89.99911678	      0.00000000	      0.00000000	      8.61000429	    -19.84885156	     11.44946512	     49.22558095	     89.99945425	      0.00000000	      0.00000000
      6.90835714	     -2.74509415	      2.32682899	     -1.08793834	      0.64894270	      0.94389979	      0.46198644	     32.95568249	     -4.66207738	     -6.31199628	     28.06596263	      5.06300000	      0.48984346	      5.50760753	     -3.64903730	     -1.22089389	     -6.09208589	      3.85066193	     -4.04829213	     14.28110299	      5.06300000	      0.24925227	     16.60327736	     -2.45565094	     -6.13451300	     -5.19814870	     -0.60351933	     -6.02971975	      0.00000000	      0.00000000	      0.00000000	     -7.27071307	    -10.73953438	     -5.09166942	     21.27123061	     89.99911678	      0.00000000	      0.00000000	      9.23494848	    -20.34027654	     11.39582954	     50.50156348	     89.99945425	      0.00000000	      0.00000000
